<?xml version="1.0" encoding="utf-8"?>
<!-- Generator: Adobe Illustrator 15.0.2, SVG Export Plug-In . SVG Version: 6.00 Build 0)  -->
<!DOCTYPE svg PUBLIC "-//W3C//DTD SVG 1.0//EN" "http://www.w3.org/TR/2001/REC-SVG-20010904/DTD/svg10.dtd">
<svg version="1.0" id="Layer_1" xmlns="http://www.w3.org/2000/svg" xmlns:xlink="http://www.w3.org/1999/xlink" x="0px" y="0px"
	 width="4000px" height="2000px" viewBox="-2000 -1000 5000 2000" xml:space="preserve">
<rect x="-1739.838" y="-1353.998" fill="#2BB673" width="4091.112" height="3511.964"/>
<rect x="-1739.838" y="45.842" fill="#6D6E71" width="774.14" height="1015.501"/>
<rect x="-1449.428" y="945.362" fill="#9A9A9A" width="449.448" height="119.164"/>
<rect x="94.442" y="-134.263" fill="#3D383A" width="507.655" height="1081.632"/>
<rect x="-1008.969" y="945.457" fill="#BCBEC0" width="130.766" height="117.616"/>
<rect x="-1580.524" y="517.079" fill="#BCBEC0" width="672.974" height="428.378"/>
<rect x="-973.333" y="947.076" fill="#A7A9AC" width="59.495" height="31.994"/>
<polygon fill="#E5E86C" points="-990.923,1027.518 -1003.465,1016.656 -1016.007,1005.794 -990.923,1005.794 -965.838,1005.794 
	-978.381,1016.656 "/>
<rect x="-1016.007" y="959.868" fill="#E5E86C" width="50.169" height="45.926"/>
<rect x="-1009.036" y="986.553" fill="#FFFFFF" width="18.113" height="7.441"/>
<rect x="-999.979" y="979.109" fill="#FFFFFF" width="18.114" height="7.443"/>
<rect x="-990.922" y="971.668" fill="#FFFFFF" width="18.113" height="7.441"/>
<polygon fill="#E5E86C" points="-943.586,958.23 -956.128,947.369 -968.67,936.507 -943.586,936.507 -918.501,936.507 
	-931.044,947.369 "/>
<rect x="-968.67" y="890.581" fill="#E5E86C" width="50.169" height="45.926"/>
<rect x="-955.821" y="909.213" fill="none" stroke="#FFFFFF" stroke-width="3" stroke-miterlimit="10" width="24.473" height="17.844"/>
<line fill="none" stroke="#FFFFFF" stroke-width="3" stroke-miterlimit="10" x1="-950.217" y1="905.908" x2="-950.217" y2="897.517"/>
<polygon fill="#FFFFFF" points="-950.217,895.089 -947.414,897.516 -944.611,899.943 -950.217,899.943 -955.821,899.943 
	-953.019,897.516 "/>
<line fill="none" stroke="#FFFFFF" stroke-width="3" stroke-miterlimit="10" x1="-936.953" y1="894.534" x2="-936.953" y2="902.926"/>
<polygon fill="#FFFFFF" points="-936.953,905.354 -939.756,902.927 -942.559,900.499 -936.953,900.499 -931.349,900.499 
	-934.151,902.927 "/>
<rect x="-907.551" y="745.088" fill="#A7A9AC" width="103.072" height="145.493"/>
<rect x="-804.479" y="835.705" fill="#BCBEC0" width="29.498" height="54.876"/>
<rect x="-804.479" y="745.088" fill="#9A9A9A" width="101.834" height="90.617"/>
<rect x="-774.98" y="835.705" fill="#9A9A9A" width="72.336" height="54.876"/>
<rect x="-702.645" y="835.705" fill="#A7A9AC" width="72.336" height="54.876"/>
<rect x="-630.309" y="835.705" fill="#BCBEC0" width="29.498" height="54.876"/>
<rect x="-702.645" y="745.088" fill="#A7A9AC" width="101.834" height="90.617"/>
<rect x="-600.811" y="779.587" fill="#9A9A9A" width="101.834" height="110.994"/>
<rect x="-979.621" y="517.079" fill="#BCBEC0" width="814.898" height="36.876"/>
<rect x="-600.811" y="745.088" fill="#9A9A9A" width="44.819" height="59.998"/>
<rect x="-804.479" y="553.955" fill="#7E7F7F" width="305.502" height="191.133"/>
<rect x="-555.991" y="745.088" fill="#7E7F7F" width="57.015" height="34.499"/>
<rect x="-907.551" y="699.021" fill="#7E7F7F" width="103.072" height="46.496"/>
<rect x="-906.313" y="553.955" fill="#9A9A9A" width="101.834" height="145.065"/>
<rect x="-878.203" y="943.909" fill="#A7A9AC" width="101.834" height="119.164"/>
<polygon fill="#E5E86C" points="-896.256,1027.819 -908.798,1016.958 -921.34,1006.096 -896.256,1006.096 -871.171,1006.096 
	-883.714,1016.958 "/>
<rect x="-921.34" y="960.17" fill="#E5E86C" width="50.169" height="45.926"/>
<rect x="-914.369" y="986.854" fill="#FFFFFF" width="18.113" height="7.441"/>
<rect x="-905.313" y="979.411" fill="#FFFFFF" width="18.114" height="7.443"/>
<rect x="-896.255" y="971.97" fill="#FFFFFF" width="18.113" height="7.441"/>
<polygon fill="#E5E86C" points="-844.287,1016.957 -856.829,1006.096 -869.371,995.233 -844.287,995.233 -819.202,995.233 
	-831.745,1006.096 "/>
<rect x="-869.371" y="949.308" fill="#E5E86C" width="50.169" height="45.926"/>
<rect x="-862.4" y="975.992" fill="#FFFFFF" width="18.113" height="7.441"/>
<rect x="-853.344" y="968.549" fill="#FFFFFF" width="18.114" height="7.443"/>
<rect x="-844.286" y="961.107" fill="#FFFFFF" width="18.113" height="7.441"/>
<rect x="-776.369" y="944.683" fill="#9A9A9A" width="277.393" height="119.164"/>
<rect x="-659.786" y="943.909" fill="#A7A9AC" width="44.227" height="122.07"/>
<rect x="-450.996" y="945.362" fill="#A7A9AC" width="56.997" height="122.07"/>
<polygon fill="#E5E86C" points="-422.498,1030.723 -435.04,1019.861 -447.582,1008.999 -422.498,1008.999 -397.413,1008.999 
	-409.956,1019.861 "/>
<rect x="-447.582" y="963.073" fill="#E5E86C" width="50.169" height="45.926"/>
<rect x="-440.611" y="989.758" fill="#FFFFFF" width="18.113" height="7.441"/>
<rect x="-431.555" y="982.314" fill="#FFFFFF" width="18.114" height="7.443"/>
<rect x="-422.497" y="974.873" fill="#FFFFFF" width="18.113" height="7.441"/>
<path fill="#CD73AE" d="M-844.98,913.544"/>
<rect x="-452.301" y="790.396" fill="#A7A9AC" width="119.799" height="100.185"/>
<rect x="-332.502" y="790.396" fill="#9A9A9A" width="119.799" height="100.185"/>
<rect x="-452.301" y="690.212" fill="#9A9A9A" width="112.299" height="100.185"/>
<rect x="-340.002" y="690.212" fill="#A7A9AC" width="127.299" height="100.185"/>
<rect x="-452.301" y="553.955" fill="#A7A9AC" width="107.519" height="136.257"/>
<rect x="-332.502" y="553.955" fill="#9A9A9A" width="119.799" height="136.257"/>
<rect x="-349.501" y="553.955" fill="#7E7F7F" width="33.998" height="136.257"/>
<rect x="-164.723" y="761.879" fill="#9A9A9A" width="102.207" height="128.702"/>
<polygon fill="#27AAE1" points="-113.62,851.659 -126.162,840.798 -138.704,829.936 -113.62,829.936 -88.535,829.936 
	-101.078,840.798 "/>
<rect x="-138.704" y="784.01" fill="#27AAE1" width="50.169" height="45.926"/>
<circle fill="#FFFFFF" cx="-125.619" cy="795.703" r="3.318"/>
<rect x="-128.938" y="799.986" fill="#FFFFFF" width="6.637" height="14.299"/>
<rect x="-128.938" y="814.285" fill="#FFFFFF" width="2.627" height="9.734"/>
<rect x="-125.066" y="814.285" fill="#FFFFFF" width="2.766" height="9.734"/>
<rect x="-122.301" y="799.986" fill="#FFFFFF" width="2.766" height="9.734"/>
<rect x="-131.703" y="799.986" fill="#FFFFFF" width="2.766" height="9.734"/>
<rect x="-115.103" y="791.854" transform="matrix(0.9806 0.1959 -0.1959 0.9806 156.2878 37.9564)" fill="#FFFFFF" width="2.767" height="34.276"/>
<circle fill="#FFFFFF" cx="-100.344" cy="795.554" r="3.318"/>
<rect x="-103.662" y="814.136" fill="#FFFFFF" width="2.627" height="9.734"/>
<rect x="-99.791" y="814.136" fill="#FFFFFF" width="2.766" height="9.734"/>
<rect x="-98.409" y="798.988" transform="matrix(0.9001 -0.4356 0.4356 0.9001 -359.8463 38.0078)" fill="#FFFFFF" width="2.766" height="9.735"/>
<rect x="-105.045" y="798.988" transform="matrix(0.8936 0.4489 -0.4489 0.8936 349.8253 132.0827)" fill="#FFFFFF" width="2.765" height="9.735"/>
<polygon fill="#FFFFFF" points="-100.343,799.839 -96.999,806.986 -93.656,814.138 -100.343,814.138 -107.028,814.138 
	-103.685,806.986 "/>
<rect x="-164.723" y="517.079" fill="#7E7F7F" width="259.953" height="244.8"/>
<rect x="-62.516" y="761.879" fill="#A7A9AC" width="102.207" height="128.702"/>
<rect x="40.896" y="761.879" fill="#9A9A9A" width="131.104" height="128.702"/>
<rect x="-62.516" y="943.909" fill="#A7A9AC" width="116.516" height="119.164"/>
<rect x="40.896" y="943.909" fill="#9A9A9A" width="127.485" height="119.164"/>
<rect x="-172" y="943.909" fill="#9A9A9A" width="109.34" height="119.164"/>
<rect x="143.418" y="840.797" fill="#E5E86C" width="50.169" height="45.926"/>
<rect x="150.389" y="867.481" fill="#FFFFFF" width="18.113" height="7.441"/>
<rect x="159.445" y="860.038" fill="#FFFFFF" width="18.114" height="7.443"/>
<rect x="168.503" y="852.597" fill="#FFFFFF" width="18.113" height="7.441"/>
<rect x="-164.723" y="360" fill="#A7A9AC" width="259.165" height="157.079"/>
<rect x="-164.723" y="202.921" fill="#9A9A9A" width="256.723" height="157.079"/>
<rect x="-164.723" y="45.842" fill="#A7A9AC" width="256.723" height="157.079"/>
<rect x="-468.363" y="360" fill="#A7A9AC" width="256.723" height="157.079"/>
<rect x="-460.863" y="45.842" fill="#A7A9AC" width="256.723" height="198.158"/>
<rect x="-460.863" y="218" fill="#9A9A9A" width="256.723" height="142"/>
<rect x="-212.703" y="45.842" fill="#BCBEC0" width="47.98" height="844.739"/>
<rect x="-540" y="360" fill="#A7A9AC" width="52.802" height="157.079"/>
<rect x="-907.551" y="45.842" fill="#7E7F7F" width="420.353" height="314.158"/>
<rect x="-393.999" y="941.389" fill="#9A9A9A" width="117.332" height="126.044"/>
<rect x="-498.977" y="45.842" fill="#BCBEC0" width="47.98" height="844.739"/>
<rect x="-283" y="945.362" fill="#A7A9AC" width="117.34" height="119.164"/>
<rect x="-907.551" y="890.581" fill="#BCBEC0" width="1129.551" height="54.876"/>
<rect x="-981.865" y="45.842" fill="#BCBEC0" width="74.507" height="657.988"/>
<rect x="-907.551" y="360" fill="#9A9A9A" width="367.551" height="157.079"/>
<polygon fill="#E5E86C" points="-871.172,408.66 -883.714,397.799 -896.256,386.937 -871.172,386.937 -846.087,386.937 
	-858.63,397.799 "/>
<rect x="-896.256" y="341.011" fill="#E5E86C" width="50.169" height="45.926"/>
<rect x="-889.285" y="367.696" fill="#FFFFFF" width="18.113" height="7.441"/>
<rect x="-880.229" y="360.252" fill="#FFFFFF" width="18.114" height="7.443"/>
<rect x="-871.171" y="352.811" fill="#FFFFFF" width="18.113" height="7.441"/>
<rect x="-1508.454" y="553.955" fill="#A7A9AC" width="528.833" height="336.626"/>
<rect x="-1194" y="45.842" fill="#9A9A9A" width="212.135" height="126.158"/>
<polygon fill="#E5E86C" points="-1135.832,132.762 -1148.374,121.9 -1160.916,111.038 -1135.832,111.038 -1110.747,111.038 
	-1123.29,121.9 "/>
<rect x="-1160.916" y="65.112" fill="#E5E86C" width="50.169" height="45.926"/>
<rect x="-1153.945" y="91.797" fill="#FFFFFF" width="18.113" height="7.441"/>
<rect x="-1144.889" y="84.354" fill="#FFFFFF" width="18.114" height="7.443"/>
<rect x="-1135.831" y="76.912" fill="#FFFFFF" width="18.113" height="7.441"/>
<polygon fill="#27AAE1" points="-856.015,947.368 -868.557,936.507 -881.099,925.645 -856.015,925.645 -830.93,925.645 
	-843.473,936.507 "/>
<rect x="-881.099" y="879.719" fill="#27AAE1" width="50.169" height="45.926"/>
<path fill="#FFFFFF" d="M-844.98,909.612c0-6.066-11.033-21.9-11.033-21.9s-10.931,15.834-10.931,21.9
	c0,6.065,4.916,10.981,10.982,10.981C-849.899,920.594-844.98,915.678-844.98,909.612z"/>
<path fill="#CD73AE" d="M-286.653,918.02"/>
<polygon fill="#27AAE1" points="-297.688,951.844 -310.229,940.982 -322.771,930.12 -297.688,930.12 -272.603,930.12 
	-285.146,940.982 "/>
<rect x="-322.771" y="884.194" fill="#27AAE1" width="50.169" height="45.926"/>
<path fill="#FFFFFF" d="M-286.653,914.088c0-6.066-11.033-21.9-11.033-21.9s-10.931,15.834-10.931,21.9
	c0,6.065,4.916,10.981,10.982,10.981C-291.572,925.069-286.653,920.153-286.653,914.088z"/>
<path fill="#CD73AE" d="M-213.297,690.213"/>
<polygon fill="#27AAE1" points="-224.331,724.037 -236.873,713.176 -249.415,702.313 -224.331,702.313 -199.246,702.313 
	-211.789,713.176 "/>
<rect x="-249.415" y="656.387" fill="#27AAE1" width="50.169" height="45.926"/>
<path fill="#FFFFFF" d="M-213.297,686.281c0-6.066-11.033-21.9-11.033-21.9s-10.931,15.834-10.931,21.9
	c0,6.064,4.916,10.98,10.982,10.98C-218.216,697.262-213.297,692.346-213.297,686.281z"/>
<path fill="#CD73AE" d="M-1386.051,592.664"/>
<polygon fill="#27AAE1" points="-1397.085,626.488 -1409.627,615.627 -1422.169,604.764 -1397.085,604.764 -1372,604.764 
	-1384.543,615.627 "/>
<rect x="-1422.169" y="558.838" fill="#27AAE1" width="50.169" height="45.926"/>
<path fill="#FFFFFF" d="M-1386.051,588.732c0-6.066-11.033-21.9-11.033-21.9s-10.931,15.834-10.931,21.9
	c0,6.064,4.916,10.98,10.982,10.98C-1390.97,599.713-1386.051,594.797-1386.051,588.732z"/>
<path fill="#CD73AE" d="M-1076.192,592.664"/>
<polygon fill="#27AAE1" points="-1087.227,626.488 -1099.769,615.627 -1112.311,604.764 -1087.227,604.764 -1062.142,604.764 
	-1074.685,615.627 "/>
<rect x="-1112.311" y="558.838" fill="#27AAE1" width="50.169" height="45.926"/>
<path fill="#FFFFFF" d="M-1076.192,588.732c0-6.066-11.033-21.9-11.033-21.9s-10.931,15.834-10.931,21.9
	c0,6.064,4.916,10.98,10.982,10.98C-1081.111,599.713-1076.192,594.797-1076.192,588.732z"/>
<path fill="#CD73AE" d="M-487.943,468.273"/>
<polygon fill="#27AAE1" points="-498.978,502.098 -511.52,491.236 -524.062,480.373 -498.978,480.373 -473.893,480.373 
	-486.436,491.236 "/>
<rect x="-524.062" y="434.447" fill="#27AAE1" width="50.169" height="45.926"/>
<path fill="#FFFFFF" d="M-487.943,464.342c0-6.066-11.033-21.9-11.033-21.9s-10.931,15.834-10.931,21.9
	c0,6.064,4.916,10.98,10.982,10.98C-492.862,475.322-487.943,470.406-487.943,464.342z"/>
<polygon fill="#E5E86C" points="168.502,908.446 155.96,897.585 143.418,886.723 168.502,886.723 193.587,886.723 181.044,897.585 
	"/>
<rect x="-614.193" y="1063.613" fill="#A7A9AC" width="115.217" height="71.457"/>
<rect x="-450.01" y="1067.433" fill="#7E7F7F" width="115.217" height="199.631"/>
<rect x="-614.657" y="1135.07" fill="#9A9A9A" width="117.332" height="131.993"/>
<rect x="-498.977" y="916.908" fill="#BCBEC0" width="47.98" height="350.155"/>
<polygon fill="#E06E6E" points="-498.978,1051.084 -511.52,1040.223 -524.062,1029.36 -498.978,1029.36 -473.893,1029.36 
	-486.436,1040.223 "/>
<rect x="-524.062" y="983.435" fill="#E06E6E" width="50.169" height="45.926"/>
<rect x="-501.979" y="994.745" fill="#FFFFFF" width="5.75" height="24.189"/>
<rect x="-511.072" y="1003.965" fill="#FFFFFF" width="24.189" height="5.75"/>
<rect x="-1580.524" y="944.684" fill="#BCBEC0" width="130.766" height="117.616"/>
<polygon fill="#E5E86C" points="-1562.498,1012.656 -1575.04,1001.795 -1587.582,990.933 -1562.498,990.933 -1537.413,990.933 
	-1549.956,1001.795 "/>
<rect x="-1587.582" y="945.007" fill="#E5E86C" width="50.169" height="45.926"/>
<rect x="-1580.611" y="971.691" fill="#FFFFFF" width="18.113" height="7.441"/>
<rect x="-1571.555" y="964.248" fill="#FFFFFF" width="18.114" height="7.443"/>
<rect x="-1562.497" y="956.807" fill="#FFFFFF" width="18.113" height="7.441"/>
<polygon fill="#E5E86C" points="-1467.542,1012.895 -1480.084,1002.033 -1492.626,991.171 -1467.542,991.171 -1442.457,991.171 
	-1455,1002.033 "/>
<rect x="-1492.626" y="945.245" fill="#E5E86C" width="50.169" height="45.926"/>
<rect x="-1485.655" y="971.93" fill="#FFFFFF" width="18.113" height="7.441"/>
<rect x="-1476.599" y="964.486" fill="#FFFFFF" width="18.114" height="7.443"/>
<rect x="-1467.541" y="957.045" fill="#FFFFFF" width="18.113" height="7.441"/>
<polygon fill="#7DC575" points="-473.894,1260.736 -486.436,1249.875 -498.978,1239.013 -473.894,1239.013 -448.809,1239.013 
	-461.352,1249.875 "/>
<rect x="-498.978" y="1193.087" fill="#7DC575" width="50.169" height="45.926"/>
<rect x="-483.063" y="1202.005" fill="none" stroke="#FFFFFF" stroke-width="4" stroke-miterlimit="10" width="18.835" height="28.5"/>
<line fill="none" stroke="#FFFFFF" stroke-width="3" stroke-miterlimit="10" x1="-479.055" y1="1215.642" x2="-470.663" y2="1215.642"/>
<polygon fill="#FFFFFF" points="-468.235,1215.642 -470.662,1218.444 -473.09,1221.247 -473.09,1215.642 -473.09,1210.037 
	-470.662,1212.84 "/>
<polygon fill="#7DC575" points="222,928.358 209.458,917.497 196.916,906.635 222,906.635 247.085,906.635 234.542,917.497 "/>
<rect x="196.916" y="860.709" fill="#7DC575" width="50.169" height="45.926"/>
<rect x="212.831" y="869.627" fill="none" stroke="#FFFFFF" stroke-width="4" stroke-miterlimit="10" width="18.835" height="28.5"/>
<line fill="none" stroke="#FFFFFF" stroke-width="3" stroke-miterlimit="10" x1="216.839" y1="883.264" x2="225.23" y2="883.264"/>
<polygon fill="#FFFFFF" points="227.658,883.264 225.231,886.066 222.804,888.869 222.804,883.264 222.804,877.659 225.231,880.462 
	"/>
<rect x="-968.525" y="1006.397" fill="#7DC575" width="50.169" height="45.926"/>
<rect x="-952.61" y="1015.315" fill="none" stroke="#FFFFFF" stroke-width="4" stroke-miterlimit="10" width="18.835" height="28.5"/>
<line fill="none" stroke="#FFFFFF" stroke-width="3" stroke-miterlimit="10" x1="-948.603" y1="1028.952" x2="-940.211" y2="1028.952"/>
<polygon fill="#FFFFFF" points="-937.783,1028.952 -940.21,1031.755 -942.638,1034.558 -942.638,1028.952 -942.638,1023.348 
	-940.21,1026.15 "/>
<polygon fill="#7DC575" points="-1515.142,1061.343 -1527.684,1050.481 -1540.226,1039.619 -1515.142,1039.619 -1490.057,1039.619 
	-1502.6,1050.481 "/>
<rect x="-1540.226" y="993.693" fill="#7DC575" width="50.169" height="45.926"/>
<rect x="-1524.311" y="1002.611" fill="none" stroke="#FFFFFF" stroke-width="4" stroke-miterlimit="10" width="18.835" height="28.5"/>
<line fill="none" stroke="#FFFFFF" stroke-width="3" stroke-miterlimit="10" x1="-1520.303" y1="1016.248" x2="-1511.911" y2="1016.248"/>
<polygon fill="#FFFFFF" points="-1509.483,1016.248 -1511.91,1019.051 -1514.338,1021.854 -1514.338,1016.248 -1514.338,1010.644 
	-1511.91,1013.446 "/>
<polygon fill="#7DC575" points="-944.612,53.212 -957.154,42.351 -969.696,31.488 -944.612,31.488 -919.527,31.488 -932.07,42.351 
	"/>
<rect x="-969.696" y="-14.438" fill="#7DC575" width="50.169" height="45.926"/>
<rect x="-953.781" y="-5.52" fill="none" stroke="#FFFFFF" stroke-width="4" stroke-miterlimit="10" width="18.835" height="28.5"/>
<line fill="none" stroke="#FFFFFF" stroke-width="3" stroke-miterlimit="10" x1="-949.773" y1="8.117" x2="-941.382" y2="8.117"/>
<polygon fill="#FFFFFF" points="-938.954,8.117 -941.381,10.92 -943.809,13.723 -943.809,8.117 -943.809,2.513 -941.381,5.315 "/>
<polygon fill="#7DC575" points="-862.114,56.805 -874.656,45.944 -887.198,35.082 -862.114,35.082 -837.029,35.082 -849.572,45.944 
	"/>
<rect x="-887.198" y="-10.844" fill="#7DC575" width="50.169" height="45.926"/>
<rect x="-871.283" y="-1.926" fill="none" stroke="#FFFFFF" stroke-width="4" stroke-miterlimit="10" width="18.835" height="28.5"/>
<line fill="none" stroke="#FFFFFF" stroke-width="3" stroke-miterlimit="10" x1="-867.275" y1="11.71" x2="-858.884" y2="11.71"/>
<polygon fill="#FFFFFF" points="-856.456,11.71 -858.883,14.513 -861.311,17.316 -861.311,11.71 -861.311,6.106 -858.883,8.909 "/>
<polygon fill="#7DC575" points="-540.001,56.805 -552.543,45.944 -565.085,35.082 -540.001,35.082 -514.916,35.082 -527.459,45.944 
	"/>
<rect x="-565.085" y="-10.844" fill="#7DC575" width="50.169" height="45.926"/>
<rect x="-549.17" y="-1.926" fill="none" stroke="#FFFFFF" stroke-width="4" stroke-miterlimit="10" width="18.835" height="28.5"/>
<line fill="none" stroke="#FFFFFF" stroke-width="3" stroke-miterlimit="10" x1="-545.162" y1="11.71" x2="-536.771" y2="11.71"/>
<polygon fill="#FFFFFF" points="-534.343,11.71 -536.77,14.513 -539.197,17.316 -539.197,11.71 -539.197,6.106 -536.77,8.909 "/>
<polygon fill="#7DC575" points="-468.364,56.805 -480.906,45.944 -493.448,35.082 -468.364,35.082 -443.279,35.082 -455.822,45.944 
	"/>
<rect x="-493.448" y="-10.844" fill="#7DC575" width="50.169" height="45.926"/>
<rect x="-477.533" y="-1.926" fill="none" stroke="#FFFFFF" stroke-width="4" stroke-miterlimit="10" width="18.835" height="28.5"/>
<line fill="none" stroke="#FFFFFF" stroke-width="3" stroke-miterlimit="10" x1="-473.525" y1="11.71" x2="-465.134" y2="11.71"/>
<polygon fill="#FFFFFF" points="-462.706,11.71 -465.133,14.513 -467.561,17.316 -467.561,11.71 -467.561,6.106 -465.133,8.909 "/>
<polygon fill="#7DC575" points="-189.68,56.805 -202.222,45.944 -214.764,35.082 -189.68,35.082 -164.595,35.082 -177.138,45.944 
	"/>
<rect x="-214.764" y="-10.844" fill="#7DC575" width="50.169" height="45.926"/>
<rect x="-198.849" y="-1.926" fill="none" stroke="#FFFFFF" stroke-width="4" stroke-miterlimit="10" width="18.835" height="28.5"/>
<line fill="none" stroke="#FFFFFF" stroke-width="3" stroke-miterlimit="10" x1="-194.841" y1="11.71" x2="-186.449" y2="11.71"/>
<polygon fill="#FFFFFF" points="-184.021,11.71 -186.448,14.513 -188.876,17.316 -188.876,11.71 -188.876,6.106 -186.448,8.909 "/>
<rect x="-452.301" y="-134.263" fill="#9A9A9A" width="127.799" height="78.195"/>
<rect x="-324.502" y="-134.263" fill="#A7A9AC" width="127.799" height="78.195"/>
<rect x="-199.246" y="-134.263" fill="#9A9A9A" width="127.799" height="78.195"/>
<rect x="-71.447" y="-134.263" fill="#A7A9AC" width="127.799" height="78.195"/>
<rect x="54" y="-134.263" fill="#9A9A9A" width="127.799" height="78.195"/>
<rect x="-1016.713" y="-134.263" fill="#9A9A9A" width="127.799" height="78.195"/>
<rect x="-888.914" y="-134.263" fill="#A7A9AC" width="127.799" height="78.195"/>
<rect x="-763.658" y="-134.263" fill="#9A9A9A" width="127.799" height="78.195"/>
<rect x="602.098" y="-56.068" fill="#3D383A" width="507.655" height="1202.932"/>
<rect x="522.787" y="475.322" fill="#2BB673" width="94.313" height="785.414"/>
<text transform="matrix(1 0 0 1 323.4404 97.7695)" fill="#FFFFFF" font-family="'MyriadPro-Regular'" font-size="58">Student/Public Parking</text>
<text transform="matrix(1 0 0 1 801.1455 796.1104)"><tspan x="0" y="0" fill="#FFFFFF" font-family="'MyriadPro-Regular'" font-size="58">Staff</tspan><tspan x="-105.529" y="69.6" fill="#FFFFFF" font-family="'MyriadPro-Regular'" font-size="58">Parking Zone</tspan></text>
<rect x="501.588" y="869.049" fill="#3D383A" width="136.711" height="76.408"/>
<rect x="1244.163" y="103.644" fill="#3D383A" width="1104.927" height="136.711"/>
<rect x="1172" y="-1366" fill="#645E61" width="32.763" height="3511.964"/>
<rect x="-1742.021" y="1470.001" fill="#645E61" width="4095.479" height="32.763"/>
<rect x="-1742.021" y="1734.712" fill="#645E61" width="4095.479" height="32.763"/>
<rect x="1432" y="281.46" fill="#645E61" width="32.763" height="1864.503"/>
<rect x="1432" y="284.618" fill="#645E61" width="917.09" height="32.763"/>
<rect x="1188.381" y="10.193" fill="#645E61" width="1165.076" height="32.763"/>
<rect x="-496.776" y="1263.757" fill="#645E61" width="38.8" height="222.626"/>
<rect x="-1008.373" y="1061.343" fill="#645E61" width="130.361" height="408.658"/>
<rect x="-822.085" y="996.897" fill="#7DC575" width="50.169" height="45.926"/>
<rect x="-806.17" y="1005.815" fill="none" stroke="#FFFFFF" stroke-width="4" stroke-miterlimit="10" width="18.835" height="28.5"/>
<line fill="none" stroke="#FFFFFF" stroke-width="3" stroke-miterlimit="10" x1="-802.162" y1="1019.452" x2="-793.771" y2="1019.452"/>
<polygon fill="#FFFFFF" points="-791.343,1019.452 -793.77,1022.255 -796.197,1025.058 -796.197,1019.452 -796.197,1013.848 
	-793.77,1016.65 "/>
<rect x="-705.348" y="1686.071" fill="#3D383A" width="91.124" height="354.883"/>
<rect x="-623.963" y="1821.932" fill="#3D383A" width="340.963" height="219.022"/>
<polygon fill="#00AEEF" points="-473.091,1931.162 -485.633,1920.301 -498.175,1909.438 -473.091,1909.438 -448.006,1909.438 
	-460.549,1920.301 "/>
<rect x="-498.175" y="1863.513" fill="#00AEEF" width="50.169" height="45.926"/>
<text transform="matrix(1 0 0 1 -481.3359 1897.1953)" fill="#FFFFFF" font-family="'MyriadPro-Regular'" font-size="31">P</text>
<polygon fill="#7DC575" points="-943.441,1074.047 -955.983,1063.186 -968.525,1052.323 -943.441,1052.323 -918.356,1052.323 
	-930.899,1063.186 "/>
<rect x="-1581.288" y="1062.734" fill="#645E61" width="130.361" height="408.658"/>
<rect x="-1449.759" y="1221.247" fill="#645E61" width="440.723" height="250.146"/>
<rect x="305.718" y="942.372" fill="#645E61" width="38.8" height="544.011"/>
<rect x="-1742.021" y="1552.547" fill="#3D383A" width="4091.111" height="136.711"/>
<rect x="1244.163" y="110.41" fill="#3D383A" width="136.711" height="1442.138"/>
<rect x="1244.163" y="1689.258" fill="#3D383A" width="136.711" height="456.706"/>
<rect x="1010.49" y="151.749" fill="#3D383A" width="233.673" height="102.344"/>
<rect x="1548.854" y="388.718" fill="#C49A6C" width="127.352" height="208.14"/>
<rect x="1548.854" y="651.174" fill="#C49A6C" width="127.352" height="208.139"/>
<rect x="1548.854" y="889.757" fill="#C49A6C" width="127.352" height="208.14"/>
<rect x="1548.854" y="1162.994" fill="#C49A6C" width="127.352" height="208.139"/>
<rect x="1758.511" y="1249.875" fill="#C49A6C" width="208.139" height="127.353"/>
<rect x="2076.593" y="1270.618" fill="#C49A6C" width="208.139" height="127.353"/>
<rect x="1771.961" y="387.602" fill="#C49A6C" width="208.139" height="127.353"/>
<rect x="2094.044" y="387.602" fill="#C49A6C" width="208.139" height="127.353"/>
<rect x="1260.044" y="-197.939" fill="#C49A6C" width="208.139" height="127.353"/>
<rect x="1548.854" y="-197.939" fill="#C49A6C" width="208.139" height="127.353"/>
<rect x="1862.58" y="-197.939" fill="#C49A6C" width="208.139" height="127.353"/>
<rect x="2124.666" y="-197.94" fill="#C49A6C" width="208.139" height="127.353"/>
<rect x="2094.044" y="1822.799" fill="#C49A6C" width="208.139" height="127.353"/>
<rect x="1806.093" y="1822.799" fill="#C49A6C" width="208.139" height="127.353"/>
<rect x="1519.231" y="1822.799" fill="#C49A6C" width="208.139" height="127.353"/>
<rect x="1519.232" y="2022.952" fill="#C49A6C" width="127.353" height="122.071"/>
<polygon fill="#C49A6C" points="1109.754,1825.44 1109.744,2145.023 -199.023,2145.023 -199.013,1825.44 "/>
<g>
	<path fill="#C49A6C" d="M-1045.353-687.805c0-96.626,78.33-174.957,174.957-174.957v-148.647
		c-178.722,0-323.604,144.883-323.604,323.604S-1049.117-364.2-870.396-364.2v-148.647
		C-967.022-512.848-1045.353-591.179-1045.353-687.805z"/>
</g>
<g>
	<path fill="#C49A6C" d="M645.012-687.805c0,96.626-78.33,174.957-174.957,174.957V-364.2
		c178.722,0,323.604-144.883,323.604-323.604s-144.883-323.604-323.604-323.604v148.647
		C566.682-862.762,645.012-784.431,645.012-687.805z"/>
</g>
<rect x="-870.396" y="-1011.409" fill="#C49A6C" width="1340.45" height="148.647"/>
<rect x="-871.171" y="-512.848" fill="#C49A6C" width="1342.149" height="148.647"/>
<rect x="2165.059" y="-512.848" fill="#C49A6C" width="127.353" height="208.139"/>
<rect x="2165.059" y="-862.762" fill="#C49A6C" width="127.353" height="208.139"/>
<rect x="2170.346" y="-1219.548" fill="#C49A6C" width="116.779" height="208.139"/>
<rect x="-1587.582" y="1502.764" fill="#3D383A" width="716.411" height="145.236"/>
<polygon fill="#1C75BC" points="-1508.672,1520.207 -1521.214,1509.346 -1533.756,1498.483 -1508.672,1498.483 -1483.587,1498.483 
	-1496.13,1509.346 "/>
<rect x="-1533.756" y="1452.558" fill="#1C75BC" width="50.169" height="45.926"/>
<text transform="matrix(1 0 0 1 -1528.8545 1477)" fill="#FFFFFF" font-family="'MyriadPro-Regular'" font-size="24">BUS</text>
<text transform="matrix(1 0 0 1 -1513.5439 1495.5205)" fill="#FFFFFF" font-family="'MyriadPro-Regular'" font-size="19">2</text>
<polygon fill="#1C75BC" points="1084.668,1681.824 1072.126,1670.963 1059.584,1660.101 1084.668,1660.101 1109.753,1660.101 
	1097.21,1670.963 "/>
<rect x="1059.584" y="1614.175" fill="#1C75BC" width="50.169" height="45.926"/>
<text transform="matrix(1 0 0 1 1064.4854 1638.6172)" fill="#FFFFFF" font-family="'MyriadPro-Regular'" font-size="24">BUS</text>
<text transform="matrix(1 0 0 1 1079.7959 1657.1377)" fill="#FFFFFF" font-family="'MyriadPro-Regular'" font-size="19">3</text>
<rect x="-1457.283" y="1062.3" fill="#645E61" width="466.36" height="51.57"/>
<polygon fill="#1C75BC" points="-1372.862,1168.896 -1385.404,1158.034 -1397.946,1147.172 -1372.862,1147.172 -1347.777,1147.172 
	-1360.32,1158.034 "/>
<rect x="-1397.946" y="1101.246" fill="#1C75BC" width="50.169" height="45.926"/>
<text transform="matrix(1 0 0 1 -1391.9189 1125.6885)" fill="#FFFFFF" font-family="'MyriadPro-Regular'" font-size="21">BIKE</text>
<polygon fill="#1C75BC" points="-1085.862,1168.896 -1098.404,1158.034 -1110.946,1147.172 -1085.862,1147.172 -1060.777,1147.172 
	-1073.32,1158.034 "/>
<rect x="-1110.946" y="1101.246" fill="#1C75BC" width="50.169" height="45.926"/>
<text transform="matrix(1 0 0 1 -1104.9189 1125.6885)" fill="#FFFFFF" font-family="'MyriadPro-Regular'" font-size="21">BIKE</text>
<polygon fill="#1C75BC" points="569.942,795.703 557.4,784.842 544.858,773.979 569.942,773.979 595.027,773.979 582.484,784.842 
	"/>
<rect x="544.858" y="728.054" fill="#1C75BC" width="50.169" height="45.926"/>
<text transform="matrix(1 0 0 1 550.8857 752.4961)" fill="#FFFFFF" font-family="'MyriadPro-Regular'" font-size="21">BIKE</text>
<rect x="386.076" y="942.836" fill="#3D383A" width="136.711" height="648.076"/>
<rect x="-815.243" y="1063.186" fill="#645E61" width="38.8" height="423.197"/>
<polygon fill="#7DC575" points="-797.001,1064.547 -809.543,1053.686 -822.085,1042.823 -797.001,1042.823 -771.916,1042.823 
	-784.459,1053.686 "/>
<text transform="matrix(1 0 0 1 5.8037 1641)" fill="#FFFFFF" font-family="'MyriadPro-Regular'" font-size="58">Cumberland St</text>
<text transform="matrix(0 -1 1 0 1341.6387 1156.582)" fill="#FFFFFF" font-family="'MyriadPro-Regular'" font-size="58">Fifthteen St W</text>
<text transform="matrix(1 0 0 1 1724.6367 187)" fill="#FFFFFF" font-family="'MyriadPro-Regular'" font-size="58">Churchill St</text>
<rect x="-1580.524" y="263.022" fill="#BCBEC0" width="614.687" height="36.876"/>
<rect x="-1582.666" y="263.022" fill="#9A9A9A" width="212.135" height="126.158"/>
<polygon fill="#B96AAB" points="-1476.599,334.824 -1489.141,323.963 -1501.683,313.101 -1476.599,313.101 -1451.514,313.101 
	-1464.057,323.963 "/>
<rect x="-1501.683" y="267.175" fill="#B96AAB" width="50.169" height="45.926"/>
<rect x="-1482.999" y="278.138" fill="#FFFFFF" width="14.39" height="24"/>
<rect x="-1469.621" y="278.46" transform="matrix(0.9308 -0.3655 0.3655 0.9308 -206.3014 -516.5045)" fill="#FFFFFF" width="4.723" height="16.276"/>
<rect x="-1487.289" y="278.46" transform="matrix(0.9167 0.3996 -0.3996 0.9167 -9.1945 617.2944)" fill="#FFFFFF" width="4.724" height="16.276"/>
<text transform="matrix(1 0 0 1 -57.6333 641.5215)" fill="#FFFFFF" font-family="'MyriadPro-Regular'" font-size="27.6457">133</text>
<text transform="matrix(1 0 0 1 -57.6333 442.4414)" fill="#FFFFFF" font-family="'MyriadPro-Regular'" font-size="27.6457">135</text>
<text transform="matrix(1 0 0 1 -57.6333 289)" fill="#FFFFFF" font-family="'MyriadPro-Regular'" font-size="27.6457">137</text>
<polygon fill="#7DC575" points="92,713.175 79.458,702.313 66.916,691.451 92,691.451 117.085,691.451 104.542,702.313 "/>
<rect x="66.916" y="645.525" fill="#7DC575" width="50.169" height="45.926"/>
<rect x="82.831" y="654.443" fill="none" stroke="#FFFFFF" stroke-width="4" stroke-miterlimit="10" width="18.835" height="28.5"/>
<line fill="none" stroke="#FFFFFF" stroke-width="3" stroke-miterlimit="10" x1="86.839" y1="668.08" x2="95.23" y2="668.08"/>
<polygon fill="#FFFFFF" points="97.658,668.08 95.231,670.883 92.804,673.686 92.804,668.08 92.804,662.476 95.231,665.278 "/>
<polygon fill="#7DC575" points="92.248,468.272 79.706,457.411 67.164,446.549 92.248,446.549 117.333,446.549 104.79,457.411 "/>
<rect x="67.164" y="400.623" fill="#7DC575" width="50.169" height="45.926"/>
<rect x="83.079" y="409.541" fill="none" stroke="#FFFFFF" stroke-width="4" stroke-miterlimit="10" width="18.835" height="28.5"/>
<line fill="none" stroke="#FFFFFF" stroke-width="3" stroke-miterlimit="10" x1="87.087" y1="423.178" x2="95.479" y2="423.178"/>
<polygon fill="#FFFFFF" points="97.906,423.178 95.479,425.98 93.052,428.783 93.052,423.178 93.052,417.573 95.479,420.376 "/>
<polygon fill="#7DC575" points="92.803,277.825 80.261,266.963 67.719,256.101 92.803,256.101 117.888,256.101 105.345,266.963 "/>
<rect x="67.719" y="210.175" fill="#7DC575" width="50.169" height="45.926"/>
<rect x="83.634" y="219.093" fill="none" stroke="#FFFFFF" stroke-width="4" stroke-miterlimit="10" width="18.835" height="28.5"/>
<line fill="none" stroke="#FFFFFF" stroke-width="3" stroke-miterlimit="10" x1="87.642" y1="232.73" x2="96.033" y2="232.73"/>
<polygon fill="#FFFFFF" points="98.461,232.73 96.034,235.533 93.606,238.335 93.606,232.73 93.606,227.125 96.034,229.928 "/>
<polygon fill="#7DC575" points="93.606,129.342 81.064,118.481 68.522,107.619 93.606,107.619 118.691,107.619 106.148,118.481 "/>
<rect x="68.522" y="61.693" fill="#7DC575" width="50.169" height="45.926"/>
<rect x="84.438" y="70.611" fill="none" stroke="#FFFFFF" stroke-width="4" stroke-miterlimit="10" width="18.835" height="28.5"/>
<line fill="none" stroke="#FFFFFF" stroke-width="3" stroke-miterlimit="10" x1="88.445" y1="84.248" x2="96.837" y2="84.248"/>
<polygon fill="#FFFFFF" points="99.265,84.248 96.838,87.05 94.41,89.853 94.41,84.248 94.41,78.643 96.838,81.446 "/>
<polygon fill="#7DC575" points="-396.152,56.805 -408.694,45.944 -421.236,35.082 -396.152,35.082 -371.067,35.082 -383.61,45.944 
	"/>
<rect x="-421.236" y="-10.844" fill="#7DC575" width="50.169" height="45.926"/>
<rect x="-405.321" y="-1.926" fill="none" stroke="#FFFFFF" stroke-width="4" stroke-miterlimit="10" width="18.835" height="28.5"/>
<line fill="none" stroke="#FFFFFF" stroke-width="3" stroke-miterlimit="10" x1="-401.313" y1="11.71" x2="-392.922" y2="11.71"/>
<polygon fill="#FFFFFF" points="-390.494,11.71 -392.921,14.513 -395.349,17.316 -395.349,11.71 -395.349,6.106 -392.921,8.909 "/>
<text transform="matrix(1 0 0 1 -57.6333 132.7617)" fill="#FFFFFF" font-family="'MyriadPro-Regular'" font-size="27.6457">139</text>
<text transform="matrix(1 0 0 1 -353.7739 438.041)" fill="#FFFFFF" font-family="'MyriadPro-Regular'" font-size="27.6457">130</text>
<text transform="matrix(1 0 0 1 -353.7739 299.8984)" fill="#FFFFFF" font-family="'MyriadPro-Regular'" font-size="27.6457">132</text>
<text transform="matrix(1 0 0 1 -353.7739 132.7617)" fill="#FFFFFF" font-family="'MyriadPro-Regular'" font-size="27.6457">134</text>
<text transform="matrix(1 0 0 1 -808.4873 202.9209)" fill="#FFFFFF" font-family="'MyriadPro-Regular'" font-size="47">Large Gym</text>
<text transform="matrix(1 0 0 1 -289.3735 628.2549)" fill="#FFFFFF" font-family="'MyriadPro-Regular'" font-size="27.6457">128</text>
<text transform="matrix(1 0 0 1 -419.8135 626.4883)" fill="#FFFFFF" font-family="'MyriadPro-Regular'" font-size="27.6457">145</text>
<text transform="matrix(1 0 0 1 -297.939 751.0156)" fill="#FFFFFF" font-family="'MyriadPro-Regular'" font-size="27.6457">124</text>
<text transform="matrix(1 0 0 1 -293.8745 849.7148)" fill="#FFFFFF" font-family="'MyriadPro-Regular'" font-size="27.6457">122</text>
<text transform="matrix(1 0 0 1 -415.2715 849.7148)" fill="#FFFFFF" font-family="'MyriadPro-Regular'" font-size="27.6457">141</text>
<text transform="matrix(1 0 0 1 -419.8135 751.0166)" fill="#FFFFFF" font-family="'MyriadPro-Regular'" font-size="27.6457">143</text>
<text transform="matrix(1 0 0 1 -32.6841 823.8701)" fill="#FFFFFF" font-family="'MyriadPro-Regular'" font-size="27.6457">118</text>
<text transform="matrix(1 0 0 1 -41.7358 877.6592)" fill="#FFFFFF" font-family="'MyriadPro-Regular'" font-size="16">116</text>
<text transform="matrix(1 0 0 1 83.3667 829.9355)" fill="#FFFFFF" font-family="'MyriadPro-Regular'" font-size="27.6457">120</text>
<text transform="matrix(1 0 0 1 85.1763 1013.8477)" fill="#FFFFFF" font-family="'MyriadPro-Regular'" font-size="27.6457">131</text>
<text transform="matrix(1 0 0 1 -32.6841 1013.8477)" fill="#FFFFFF" font-family="'MyriadPro-Regular'" font-size="27.6457">129</text>
<text transform="matrix(1 0 0 1 -134.8911 1015.3154)" fill="#FFFFFF" font-family="'MyriadPro-Regular'" font-size="27.6457">127</text>
<text transform="matrix(1 0 0 1 -245.5503 1001.8477)"><tspan x="0" y="0" fill="#FFFFFF" font-family="'MyriadPro-Regular'" font-size="27.6457">125</tspan><tspan x="-11.121" y="20.4" fill="#FFFFFF" font-family="'MyriadPro-Regular'" font-size="17">Resource</tspan></text>
<text transform="matrix(1 0 0 1 -356.0649 1015.3154)" fill="#FFFFFF" font-family="'MyriadPro-Regular'" font-size="27.6457">121</text>
<text transform="matrix(1 0 0 1 -748.1055 662.4756)" fill="#FFFFFF" font-family="'MyriadPro-Regular'" font-size="47">Small Gym</text>
<text transform="matrix(1 0 0 1 -577.8574 1013.8477)" fill="#FFFFFF" font-family="'MyriadPro-Regular'" font-size="27.6457">105</text>
<text transform="matrix(1 0 0 1 -745.0479 1013.8477)" fill="#FFFFFF" font-family="'MyriadPro-Regular'" font-size="27.6457">103</text>
<text transform="matrix(1 0 0 1 -588.4326 1108.3379)" fill="#FFFFFF" font-family="'MyriadPro-Regular'" font-size="16">Guidance</text>
<text transform="matrix(1 0 0 1 -583.0723 1201.0664)"><tspan x="0" y="0" fill="#FFFFFF" font-family="'MyriadPro-Regular'" font-size="16">Teacher</tspan><tspan x="0.991" y="19.199" fill="#FFFFFF" font-family="'MyriadPro-Regular'" font-size="16">Lounge</tspan></text>
<text transform="matrix(1 0 0 1 -410.5986 1158.0332)"><tspan x="0" y="0" fill="#FFFFFF" font-family="'MyriadPro-Regular'" font-size="16">Main</tspan><tspan x="-3.024" y="19.199" fill="#FFFFFF" font-family="'MyriadPro-Regular'" font-size="16">Office</tspan></text>
<text transform="matrix(1 0 0 1 -571.166 842.0352)" fill="#FFFFFF" font-family="'MyriadPro-Regular'" font-size="27.6457">110</text>
<text transform="matrix(1 0 0 1 -687.749 820.1504)" fill="#FFFFFF" font-family="'MyriadPro-Regular'" font-size="27.6457">108</text>
<text transform="matrix(1 0 0 1 -758.4941 820.8691)" fill="#FFFFFF" font-family="'MyriadPro-Regular'" font-size="27.6457">102</text>
<text transform="matrix(1 0 0 1 -672.0977 874.9229)" fill="#FFFFFF" font-family="'MyriadPro-Regular'" font-size="16">106</text>
<text transform="matrix(1 0 0 1 -765.873 877.2021)" fill="#FFFFFF" font-family="'MyriadPro-Regular'" font-size="16">104</text>
<text transform="matrix(1 0 0 1 -877.2871 820.1504)" fill="#FFFFFF" font-family="'MyriadPro-Regular'" font-size="27.6457">100</text>
<text transform="matrix(1 0 0 1 -761.7246 452.4102)" fill="#FFFFFF" font-family="'MyriadPro-Regular'" font-size="41">Library</text>
<text transform="matrix(1 0 0 1 -1299.6865 731.2676)" fill="#FFFFFF" font-family="'MyriadPro-Regular'" font-size="60">Cafe</text>
</svg>
